<svg id="Capa_4" data-name="Capa 4" xmlns="http://www.w3.org/2000/svg" viewBox="0 0 1149.38 356.46"><defs><style>.cls-1{fill:#fefefe;}</style></defs><path class="cls-1" d="M-841.95,850.63v-90h90v-30h-60v0h-30v-15a14.51,14.51,0,0,1,4.36-10.62A14.49,14.49,0,0,1-827,700.63h90a14.54,14.54,0,0,1,10.62,4.4A14.58,14.58,0,0,1-722,715.65v60l-30,15,30,15v45h-30v-30l-60-30v60Z" transform="translate(1207.89 -687.7)"/><path class="cls-1" d="M-698.58,850.63l75-150,75,150h-90l15-30h30l-30-60-45,90Z" transform="translate(1207.89 -687.7)"/><path class="cls-1" d="M-525.21,850.63v-150h45l60,120v-120h30v150h-45l-60-120v120Z" transform="translate(1207.89 -687.7)"/><path class="cls-1" d="M-351.85,850.63v-135a14.51,14.51,0,0,1,4.36-10.62,14.49,14.49,0,0,1,10.62-4.43h15v45l45-45h45l-90,90v60Zm75,0a14.54,14.54,0,0,1-10.62-4.35,14.57,14.57,0,0,1-4.39-10.63v-45l30-30v60h30v30Z" transform="translate(1207.89 -687.7)"/><path class="cls-1" d="M-841.95,1030.63v-135a14.48,14.48,0,0,1,4.36-10.61A14.46,14.46,0,0,1-827,880.63h120a14.57,14.57,0,0,1,10.62,4.4,14.53,14.53,0,0,1,4.39,10.62v15H-812v90h90v-30h-30v0h-30v-15a14.53,14.53,0,0,1,4.39-10.62,14.47,14.47,0,0,1,10.62-4.4h60a14.57,14.57,0,0,1,10.62,4.4,14.42,14.42,0,0,1,4.39,10.58v60a14.57,14.57,0,0,1-4.39,10.63,14.64,14.64,0,0,1-10.62,4.35Z" transform="translate(1207.89 -687.7)"/><path class="cls-1" d="M-668.59,1030.63l75-150,75,150h-90l15-30h30l-30-60-45,90Z" transform="translate(1207.89 -687.7)"/><path class="cls-1" d="M-495.22,1030.63v-135a14.48,14.48,0,0,1,4.36-10.61,14.46,14.46,0,0,1,10.62-4.44h15l45,90,45-90h15a14.54,14.54,0,0,1,10.62,4.4,14.54,14.54,0,0,1,4.4,10.62v135h-30v-90l-45,90-45-90v90Z" transform="translate(1207.89 -687.7)"/><path class="cls-1" d="M-306.88,910.66a14.53,14.53,0,0,1-10.62-4.39,14.55,14.55,0,0,1-4.36-10.62A14.62,14.62,0,0,1-317.5,885a14.54,14.54,0,0,1,10.62-4.4h90a14.57,14.57,0,0,1,10.62,4.4,14.61,14.61,0,0,1,4.35,10.62,14.54,14.54,0,0,1-4.35,10.62,14.56,14.56,0,0,1-10.62,4.39Zm0,60a14.54,14.54,0,0,1-10.62-4.4,14.55,14.55,0,0,1-4.36-10.62,14.51,14.51,0,0,1,4.36-10.58,14.54,14.54,0,0,1,10.62-4.4h90a14.57,14.57,0,0,1,10.62,4.4,14.5,14.5,0,0,1,4.35,10.58,14.54,14.54,0,0,1-4.35,10.62,14.57,14.57,0,0,1-10.62,4.4Zm0,60a14.61,14.61,0,0,1-10.62-4.35,14.66,14.66,0,0,1-4.36-10.63A14.55,14.55,0,0,1-317.5,1005a14.54,14.54,0,0,1,10.62-4.4h90a14.57,14.57,0,0,1,10.62,4.4,14.54,14.54,0,0,1,4.35,10.61,14.65,14.65,0,0,1-4.35,10.63,14.64,14.64,0,0,1-10.62,4.35Z" transform="translate(1207.89 -687.7)"/><path class="cls-1" d="M-178.49,1030.63l30-30h60v-30h-75a14.57,14.57,0,0,1-10.62-4.4,14.55,14.55,0,0,1-4.36-10.62v-60a14.52,14.52,0,0,1,4.36-10.61,14.49,14.49,0,0,1,10.62-4.44h90A14.57,14.57,0,0,1-62.87,885a14.61,14.61,0,0,1,4.35,10.62v15h-90v30h75a14.57,14.57,0,0,1,10.62,4.4,14.5,14.5,0,0,1,4.35,10.58v60a14.65,14.65,0,0,1-4.35,10.63,14.64,14.64,0,0,1-10.62,4.35Z" transform="translate(1207.89 -687.7)"/><rect class="cls-1" x="886.1" y="205.16" width="27" height="125"/><path class="cls-1" d="M-952.49,822.7c-10.46-9.58-21.21-18.7-34.82-23.65-19.69-7.14-37.59-4-53.54,9.5-6.84,5.8-13,12.45-20.11,17.86-8.38,6.38-17.76,11.08-28.72,11.35-.41-2.44,1.63-3.09,3.1-4,10.6-6.29,17.92-15.7,24.77-25.63,2.13-3.08,1.26-4.72-1.72-6.21-23.47-11.68-47.32-22.39-73.72-25.34-9.51-1.06-19.28-1.62-28.64,1.88-11.64,4.35-16.34,11.35-15.91,25.21.33,10.81,4.09,20.82,8.62,30.55.77,1.64,3,3.34.84,5.53l-13.23,12.66c-6.11-13.48-12.35-26.85-13.8-41.91-2.69-27.92,13.15-46.84,41.22-48.43,18.48-1,36,3.78,53.09,10.08a305.39,305.39,0,0,1,49.83,24.08c1.76,1,3.15,2.09,5.27.22,18.67-16.45,39.41-16.18,61.15-7.33a111.49,111.49,0,0,1,24.58,14.21c2.26,1.68,3.47,2,4.78-.91,10.91-24.52,21.37-49.18,24.09-76.28a41.14,41.14,0,0,0-.88-14.87c-2-7.51-5.88-10.58-13.56-10.72-6.84-.12-13.1,2.07-19.17,4.92-23.26,10.93-42.17,27.71-60.5,45.22-7.22,6.9-14.09,14.16-21.11,21.25-1,.82-1.68,2-2.7,2.85-1.48,1.21-3,3-5.08,1.66-2-1.2-1.22-3.13-.65-4.87,20.23-23.06,41.15-45.41,65.83-63.88,10.44-7.81,21.32-14.93,34-18.47,19-5.3,32.2,3,35.56,22.54,2.55,14.89.11,29.52-3.18,44.06C-932.07,779.41-941.21,801.46-952.49,822.7Z" transform="translate(1207.89 -687.7)"/><path class="cls-1" d="M-1176.75,1013c23.92,5.68,39-7.46,52.28-24.49,7.82-10,12.89-21.65,19.13-32.59,5.51-9.66,14.09-15.14,24.49-18.21,1.09-.4,2.37-.91,3,.37.52,1-.58,1.75-1.27,2.41-3.9,3.69-4.05,3.84-.21,7.27,4,3.58,8,7.23,12.77,9.94,14.42,10.41,28.59,21.18,43.8,30.44,26.54,16.17,53.81,30.7,84.61,37.11,9.5,2,19.13,2.81,28.73.6,12.4-2.85,19.27-11.35,19.84-24.12.45-10.16-1.67-19.85-5.15-29.3a41.36,41.36,0,0,1-1.86-5.16c-.65-2.85-.93-5.9,2.51-7.21,3.25-1.24,6,0,7.64,3a77.17,77.17,0,0,1,4,9.11,82,82,0,0,1,5.81,35.68c-1.19,17.22-14.07,31-33.37,34.77-17.37,3.36-34.47.87-51.31-3.81-48.25-13.43-89.52-39.56-128.17-70.47-1-.83-2.06-1.68-3.07-2.55-1.74-1.48-2.82-1.28-3.49,1.07-1.28,4.48-2.44,9-4.12,13.35-5.44,14-11.87,27.44-23.13,37.89-15.33,14.23-37.59,13.27-51.72-2.17C-1175.74,1015.07-1176.66,1014.29-1176.75,1013Z" transform="translate(1207.89 -687.7)"/><path class="cls-1" d="M-905.49,907.42c-.15,1.06-.29,2.12-.44,3.18-1.34,7-6.61,11-12.05,14.49-10,6.43-21.48,7-32.83,5.82a117.74,117.74,0,0,1-35.47-9.81c-1.62-.72-3.58-1.1-4.24-3.15,9.92-18.38,19.9-36.72,29.74-55.14,5.47-10.23,10.73-20.57,16.07-30.86,1.88-.3,2.63,1.22,3.48,2.33,14.35,18.8,26.78,38.67,33.82,61.48C-906.24,899.54-904.86,903.33-905.49,907.42Z" transform="translate(1207.89 -687.7)"/><path class="cls-1" d="M-990.52,918c11.14,4.71,22.46,8.82,34.49,10.8a72.75,72.75,0,0,0,25.7-.12c11-2.11,18.64-8.8,24.4-18,6.2,22.5-13.48,45.53-37.13,43.94-16.27-1.1-30.63-7.25-44.3-15.4-3.28-2-4.85-1.56-7.35,1.13-4.23,4.56-8.24,9.58-15.93,12.56Z" transform="translate(1207.89 -687.7)"/><path class="cls-1" d="M-905.49,907.42c-6.6-28.52-21.26-52.85-39.22-75.47a324.31,324.31,0,0,0,22.37-61c2.29,1.58,2.42,3.73,2.74,5.76,1.28,8-.44,15.91-1.68,23.76a254.78,254.78,0,0,1-7.2,31.57c-1,3.46-.72,6.05,1.75,9,10.63,12.74,19.36,26.64,23.07,43.07C-901.88,892-901.62,899.91-905.49,907.42Z" transform="translate(1207.89 -687.7)"/><path class="cls-1" d="M-1196.87,873.8c3.06,4.83,1.69,9.49.22,14.6-5.49,19.13-5.4,38.63-2.65,58.18,1.13,8,2.45,16,3.69,24.06a93.83,93.83,0,0,0,10.2,30.52c.76,1.37,2,2.87.73,4.53-.85,1.08-2,.74-3.11.13-11.4-10.23-15.79-23.9-17.8-38.33-4.41-31.68-2.87-63,8.06-93.4C-1197.5,873.55-1197.28,873.48-1196.87,873.8Z" transform="translate(1207.89 -687.7)"/><path class="cls-1" d="M-1030.58,924.38c7.22-1.09,14.33-.87,21.26,1.66-5.92,9.38-12.14,18.55-18.9,27.35-1.61,2.11-3.28,4.17-5.79,5.32a9.1,9.1,0,0,1-11-1.93c-3.24-3.26-3.11-7.41-.86-11,3.6-5.74,7.74-11.14,11.62-16.71.94-1.34,1.75-2.77,2.62-4.16A.93.93,0,0,1-1030.58,924.38Z" transform="translate(1207.89 -687.7)"/><path class="cls-1" d="M-1196.87,873.8a2.41,2.41,0,0,1-.66.29c-4-9.46-8.06-18.91-9.6-29.2a52.35,52.35,0,0,1,1.12-21.14c5.91,13.2,8.77,26.31,14.89,38.06A40.45,40.45,0,0,0-1196.87,873.8Z" transform="translate(1207.89 -687.7)"/><path class="cls-1" d="M-1187.79,1005.82c3,.07,3.75-1.39,2.11-3.67-4.81-6.69-6-14.77-8.92-22.21a18.33,18.33,0,0,1-1-9.3c3.7,14,8.59,27.58,15.95,40.16C-1182.92,1010-1185.37,1008-1187.79,1005.82Z" transform="translate(1207.89 -687.7)"/><path class="cls-1" d="M-1066.52,957.71c-6.52-2.22-11-7.23-15.5-12-2.14-2.22-.12-4.08,2.08-5.52,2.6-1.69,1.37-2.39-.92-2.52,3.71-1.36,7.3-3.14,11.42-2.88-3.15,2.1-6.2,4.34-9.46,6.24s-3.29,3.4-.47,5.8C-1075.1,950.5-1070.26,953.46-1066.52,957.71Z" transform="translate(1207.89 -687.7)"/><path class="cls-1" d="M-1171.34,840.28c11.95-8.37,25.19-9.75,39.09-7,12.2,2.43,24.11,6.62,36.79,6.06-9.78,4.89-20.17,5.84-30.9,5.11-12.53-.86-25.13-2.26-37.2,3-2.44,1.07-4.5.64-5.54-2.26C-1169.7,843.51-1170.58,841.92-1171.34,840.28Z" transform="translate(1207.89 -687.7)"/><path class="cls-1" d="M-1050.43,886.72c0,2.35-.89,3.44-2.4,4.06-2.91,1.2-5.81,2.41-8.75,3.52a3.54,3.54,0,0,1-4.87-2.16c-1-2.24.24-3.92,2.24-4.83a77.42,77.42,0,0,1,8.76-3.47C-1052.48,882.9-1050.65,884.13-1050.43,886.72Z" transform="translate(1207.89 -687.7)"/><path class="cls-1" d="M-1083.8,903.48c-2-.14-3.54-.76-4-2.61s-.28-3.52,1.45-4.32c3.29-1.51,6.68-2.81,10.09-4a3.13,3.13,0,0,1,4.12,1.79c.88,1.94.38,3.81-1.41,4.72C-1077,900.76-1080.52,902.09-1083.8,903.48Z" transform="translate(1207.89 -687.7)"/><path class="cls-1" d="M-955,818.54c-6.88-5.77-13.75-11.55-21.65-15.94-22.48-12.52-45.26-11.24-63.79,4-5.25,4.31-10.24,9-15.2,13.66-9.65,9.11-20.89,15.23-34.39,16.46a38.31,38.31,0,0,0-5.38,1.4,70.68,70.68,0,0,1-34.12,4.7c-9.81-1-19.93-1.45-29.68,1.61-7,2.19-7,2.18-11.15-3.93a4.17,4.17,0,0,0-1.27-.89c-5.77,3.09-11.2,6.53-14,12.85,3.53,10.46,9.11,20,14,30.33-3.16-.64-5-2.26-6.87-3.85-5.5-4.75-9.08-11-12.71-17.11-5.4,2.77-5.69,7.94-6.11,13,1.16,5,.19,9.77-1.3,14.64a89.68,89.68,0,0,0-3.65,21.6,218.72,218.72,0,0,0,5.29,58.93c2.35,9.16,4.86,18.29,8.75,26.92,2.23,4.93,4.14,10.17,8.48,13.86l2.91,2.21c8.74,4.74,17.53,2.94,26-.45,9.12-3.66,16.39-10.08,22.67-17.57a141.26,141.26,0,0,0,19.92-31.58c5.7-12.25,14.62-20.88,27.78-24.76,3.84-.71,7.25-2.69,11-3.81l12.4-4.9c9.81-3.78,19.07-8.89,29.12-12.4-.16,3.05-4.88,4.45-2,7.93,5.44,0,10.92-.83,16.29.78a5.22,5.22,0,0,0,4.35-.21,621.74,621.74,0,0,0,33-55.7c8.36-15.66,16.9-31.25,23.79-47.64A5.84,5.84,0,0,0-955,818.54Zm-163.29,98.06c-6.8,3-10.19,5.63-7.78,14.13,2,7.07-6.53,14.58-14,14-5.45-.42-8.44-3.75-9.21-8.89-.68-4.51-2.59-5-6.2-2.84a15.74,15.74,0,0,1-8,2.5c-7.23,0-11.41-6.8-8.71-13.85a13.8,13.8,0,0,1,9.13-8.6c5.34-1.6,6.75-3.88,4.82-9.57-2.75-8.11,4.39-16.69,13-16.72,4.93,0,8.1,2.32,9.56,7.09,1.94,6.33,2,6.31,8.26,3.77,7-2.84,12.26-1.7,14.89,3.22S-1112.14,913.94-1118.26,916.6Zm92.78-60.63h0a17.3,17.3,0,0,1-1.85,2.29c-4.64,4-11,4.36-14.43.82s-2.64-9.32,1.88-14.08h0c1.17-2,3.25-2.87,5.26-3.53,3.91-1.26,7.78-1,10.3,2.67C-1021.51,848.24-1022.41,852.29-1025.48,856Zm2.28-25a8.43,8.43,0,0,1-2.66-2.88c-2.39-4.36-.35-10.53,4.46-14s9.82-3.3,13.78.59h0c3,4.55,2.46,9.18-1.56,13.39S-1019.29,833.52-1023.2,830.94Zm14.94,41.08c-5.32.09-8.56-3-8.52-8.1a12.85,12.85,0,0,1,12.42-12.36c5.31,0,8.56,3,8.55,8.09C-995.81,866.08-1001.69,871.92-1008.26,872Zm26.37-33.56a12.3,12.3,0,0,1-11.57,4.3,7.09,7.09,0,0,1-3.1-1.46c-3.3-2.55-3.9-5.92-2.77-9.78,1.45-4.95,6.05-9.09,11-9.47,3.78-.29,7.28.35,8.65,4.67h0C-977.39,831.2-978.9,835.1-981.89,838.46Z" transform="translate(1207.89 -687.7)"/><path class="cls-1" d="M-979.67,826.77v0Z" transform="translate(1207.89 -687.7)"/></svg>