<svg id="Capa_3" data-name="Capa 3" xmlns="http://www.w3.org/2000/svg" viewBox="0 0 1149.38 356.46"><defs><style>.cls-1{fill:#0295fc;}.cls-2{fill:#001d5f;}.cls-3{fill:#0196fc;}.cls-4{fill:#0395fa;}.cls-5{fill:#0396fb;}.cls-6{fill:#0695f9;}.cls-7{fill:#2b8cd5;}.cls-8{fill:#fdfdfe;}.cls-9{fill:#f2f5f8;}</style></defs><path class="cls-1" d="M464.84,205.78v-90h90v-30h-60v0h-30v-15a15,15,0,0,1,15-15h90a14.94,14.94,0,0,1,15,15v60l-30,15,30,15v45h-30v-30l-60-30v60Z" transform="translate(-98.9 -42.84)"/><path class="cls-1" d="M608.21,205.78l75-150,75,150h-90l15-30h30l-30-60-45,90Z" transform="translate(-98.9 -42.84)"/><path class="cls-1" d="M781.58,205.78v-150h45l60,120v-120h30v150h-45l-60-120v120Z" transform="translate(-98.9 -42.84)"/><path class="cls-1" d="M954.94,205.78V70.83a15,15,0,0,1,15-15h15v45l45-45h45l-90,90v60Zm75,0a15,15,0,0,1-15-15v-45l30-30v60h30v30Z" transform="translate(-98.9 -42.84)"/><path class="cls-2" d="M464.84,385.78V250.83a15,15,0,0,1,15-15.05h120a15,15,0,0,1,15,15v15h-120v90h90v-30h-30v0h-30v-15a15,15,0,0,1,15-15h60a15,15,0,0,1,15,15v60a15,15,0,0,1-15,15Z" transform="translate(-98.9 -42.84)"/><path class="cls-2" d="M638.2,385.78l75-150,75,150h-90l15-30h30l-30-60-45,90Z" transform="translate(-98.9 -42.84)"/><path class="cls-2" d="M811.57,385.78V250.83a15,15,0,0,1,15-15.05h15l45,90,45-90h15a15,15,0,0,1,15,15v135h-30v-90l-45,90-45-90v90Z" transform="translate(-98.9 -42.84)"/><path class="cls-2" d="M999.91,265.81a15,15,0,1,1,0-30h90a15,15,0,1,1,0,30Zm0,60a15,15,0,1,1,0-30h90a15,15,0,1,1,0,30Zm0,60a15,15,0,1,1,0-30h90a15,15,0,1,1,0,30Z" transform="translate(-98.9 -42.84)"/><path class="cls-2" d="M1128.3,385.78l30-30h60v-30h-75a14.94,14.94,0,0,1-15-15V250.83a15,15,0,0,1,15-15.05h90a14.92,14.92,0,0,1,15,15v15h-90v30h75a14.92,14.92,0,0,1,15,15v60a14.87,14.87,0,0,1-15,15Z" transform="translate(-98.9 -42.84)"/><rect class="cls-2" x="886.1" y="205.16" width="27" height="125"/><path class="cls-2" d="M354.3,177.84c-6.89,16.4-15.43,32-23.79,47.64a621.9,621.9,0,0,1-33,55.71,5.22,5.22,0,0,1-4.35.21c-5.37-1.62-10.85-.81-16.3-.79-2.83-3.48,1.89-4.87,2.05-7.92-10.05,3.51-19.31,8.61-29.12,12.4l-12.4,4.9c-3.7,1.11-7.11,3.09-10.95,3.81-13.16,3.88-22.08,12.5-27.78,24.76a141.72,141.72,0,0,1-19.92,31.58c-6.28,7.48-13.55,13.91-22.67,17.57-8.46,3.38-17.25,5.19-26,.45L127.13,366c-4.34-3.69-6.25-8.93-8.48-13.87-3.89-8.62-6.4-17.75-8.75-26.91a218.76,218.76,0,0,1-5.29-58.94,89.68,89.68,0,0,1,3.65-21.59c1.49-4.88,2.46-9.62,1.3-14.64.42-5.11.71-10.27,6.11-13.05,3.63,6.16,7.2,12.36,12.71,17.12,1.84,1.59,3.71,3.21,6.87,3.85-4.92-10.34-10.5-19.88-14-30.33,2.77-6.32,8.2-9.77,14-12.85a4.06,4.06,0,0,1,1.28.88c4.16,6.11,4.17,6.13,11.15,3.93,9.75-3.06,19.87-2.63,29.68-1.61a70.68,70.68,0,0,0,34.12-4.7,37,37,0,0,1,5.38-1.39c13.5-1.23,24.74-7.35,34.39-16.47,5-4.68,9.95-9.34,15.2-13.65,18.53-15.22,41.31-16.51,63.79-4,7.9,4.4,14.76,10.18,21.65,15.94A5.84,5.84,0,0,1,354.3,177.84Z" transform="translate(-98.9 -42.84)"/><path class="cls-1" d="M354.3,177.84c-10.46-9.58-21.21-18.7-34.82-23.64-19.69-7.15-37.59-4-53.54,9.49-6.84,5.8-13,12.45-20.11,17.87-8.38,6.38-17.76,11.08-28.72,11.35-.41-2.45,1.63-3.09,3.1-4,10.6-6.29,17.92-15.7,24.77-25.62,2.13-3.09,1.26-4.73-1.72-6.21-23.47-11.69-47.32-22.4-73.72-25.34-9.51-1.07-19.28-1.63-28.64,1.87C129.26,138,124.56,145,125,158.86c.33,10.8,4.09,20.81,8.62,30.54.77,1.65,3,3.34.84,5.54l-13.23,12.65c-6.11-13.47-12.35-26.84-13.8-41.9-2.69-27.92,13.15-46.84,41.22-48.43,18.48-1.05,36,3.78,53.09,10.08a305.39,305.39,0,0,1,49.83,24.08c1.76,1,3.15,2.08,5.27.21,18.67-16.44,39.41-16.18,61.15-7.33a112.28,112.28,0,0,1,24.58,14.21c2.26,1.69,3.47,2,4.78-.91,10.91-24.52,21.37-49.17,24.09-76.27a41.2,41.2,0,0,0-.88-14.88c-2-7.5-5.88-10.57-13.56-10.71-6.84-.12-13.1,2.06-19.17,4.92-23.26,10.92-42.17,27.7-60.5,45.22-7.22,6.89-14.09,14.15-21.12,21.25-1,.82-1.67,2-2.69,2.84-1.48,1.21-3,3-5.08,1.67-2-1.21-1.22-3.14-.65-4.88,20.23-23.05,41.15-45.41,65.83-63.88,10.44-7.8,21.32-14.92,34.05-18.47,19-5.3,32.2,3,35.56,22.55,2.55,14.88.11,29.52-3.18,44.05C374.72,134.55,365.58,156.61,354.3,177.84Z" transform="translate(-98.9 -42.84)"/><path class="cls-3" d="M130,368.16c23.91,5.68,39-7.46,52.28-24.5,7.82-10,12.88-21.65,19.13-32.59,5.51-9.65,14.09-15.14,24.48-18.21,1.1-.39,2.38-.91,3,.38.52,1-.58,1.74-1.27,2.4-3.9,3.7-4.05,3.85-.21,7.27,4,3.59,8.05,7.23,12.77,9.95,14.42,10.41,28.59,21.17,43.8,30.44,26.53,16.16,53.81,30.7,84.61,37.1,9.5,2,19.13,2.81,28.73.61,12.4-2.85,19.27-11.36,19.84-24.13.45-10.16-1.68-19.84-5.15-29.3a41.22,41.22,0,0,1-1.86-5.15c-.65-2.86-.93-5.9,2.51-7.22,3.25-1.24,6,0,7.64,3a78.65,78.65,0,0,1,4,9.11A82.06,82.06,0,0,1,430.21,363c-1.19,17.22-14.08,31-33.37,34.78-17.37,3.35-34.47.87-51.31-3.82-48.25-13.43-89.53-39.56-128.17-70.46-1-.83-2.06-1.69-3.07-2.55-1.74-1.48-2.82-1.28-3.49,1.07-1.28,4.48-2.44,9-4.12,13.35-5.44,14-11.87,27.44-23.13,37.89-15.33,14.22-37.59,13.26-51.72-2.18C131.05,370.21,130.13,369.43,130,368.16Z" transform="translate(-98.9 -42.84)"/><path class="cls-2" d="M401.3,262.57c-.15,1.06-.3,2.12-.44,3.18-1.34,7.05-6.61,11-12.05,14.49-10.05,6.42-21.48,7-32.83,5.81a117.44,117.44,0,0,1-35.47-9.8c-1.62-.72-3.58-1.11-4.24-3.16,9.92-18.37,19.9-36.72,29.74-55.13,5.47-10.23,10.72-20.58,16.07-30.87,1.88-.29,2.63,1.22,3.48,2.34,14.35,18.8,26.78,38.67,33.82,61.48C400.55,254.68,401.93,258.47,401.3,262.57Z" transform="translate(-98.9 -42.84)"/><path class="cls-1" d="M316.27,273.09c11.14,4.72,22.46,8.83,34.49,10.81a72.75,72.75,0,0,0,25.7-.13c11-2.1,18.64-8.8,24.4-18,6.2,22.49-13.48,45.53-37.13,43.93-16.27-1.1-30.63-7.25-44.3-15.4-3.28-1.95-4.85-1.55-7.35,1.14C307.85,300,303.84,305,296.15,308,303.32,295.53,309.79,284.31,316.27,273.09Z" transform="translate(-98.9 -42.84)"/><path class="cls-4" d="M401.3,262.57c-6.6-28.52-21.26-52.86-39.22-75.48a324.05,324.05,0,0,0,22.37-61c2.29,1.59,2.42,3.74,2.74,5.76,1.28,8-.44,15.91-1.68,23.77a254.63,254.63,0,0,1-7.2,31.56c-1,3.47-.72,6.06,1.75,9,10.63,12.74,19.36,26.64,23.07,43.08C404.91,247.12,405.17,255.06,401.3,262.57Z" transform="translate(-98.9 -42.84)"/><path class="cls-1" d="M109.92,229c3.06,4.83,1.69,9.49.22,14.59-5.49,19.13-5.4,38.63-2.65,58.19,1.12,8,2.45,16,3.69,24a93.67,93.67,0,0,0,10.2,30.52c.76,1.37,2,2.87.73,4.54-.85,1.08-2,.73-3.11.13-11.4-10.24-15.79-23.9-17.8-38.33-4.41-31.69-2.87-63,8.06-93.41C109.29,228.7,109.51,228.62,109.92,229Z" transform="translate(-98.9 -42.84)"/><path class="cls-5" d="M276.21,279.52c7.22-1.09,14.33-.87,21.26,1.66-5.92,9.38-12.14,18.56-18.9,27.36-1.61,2.11-3.28,4.17-5.79,5.32a9.11,9.11,0,0,1-11-1.93c-3.24-3.26-3.11-7.42-.86-11,3.6-5.75,7.74-11.15,11.62-16.72.94-1.34,1.75-2.77,2.62-4.15A.94.94,0,0,1,276.21,279.52Z" transform="translate(-98.9 -42.84)"/><path class="cls-6" d="M109.92,229a2.38,2.38,0,0,1-.66.28c-4-9.46-8.06-18.91-9.6-29.2a52.36,52.36,0,0,1,1.12-21.14c5.91,13.21,8.77,26.31,14.89,38.06A40.38,40.38,0,0,0,109.92,229Z" transform="translate(-98.9 -42.84)"/><path class="cls-1" d="M119,361c3,.06,3.74-1.4,2.11-3.68-4.81-6.69-6-14.77-8.92-22.21a18.31,18.31,0,0,1-1-9.3c3.7,14,8.59,27.59,15.95,40.17C123.87,365.18,121.42,363.1,119,361Z" transform="translate(-98.9 -42.84)"/><path class="cls-7" d="M240.27,312.86c-6.52-2.22-11-7.24-15.5-11.95-2.14-2.23-.12-4.09,2.08-5.52,2.6-1.69,1.37-2.4-.92-2.53,3.71-1.35,7.3-3.13,11.42-2.87-3.15,2.09-6.2,4.34-9.46,6.23s-3.29,3.4-.47,5.8C231.69,305.65,236.53,308.6,240.27,312.86Z" transform="translate(-98.9 -42.84)"/><path class="cls-8" d="M161.51,241.92c4.93,0,8.1,2.31,9.56,7.09,1.94,6.32,2,6.31,8.26,3.77,7-2.84,12.26-1.71,14.89,3.22s.43,13.08-5.69,15.75c-6.81,3-10.19,5.62-7.78,14.12,2,7.08-6.53,14.59-14,14-5.45-.42-8.44-3.76-9.21-8.9-.68-4.5-2.59-5-6.2-2.83a15.83,15.83,0,0,1-8,2.49c-7.23,0-11.41-6.79-8.71-13.84a13.84,13.84,0,0,1,9.13-8.61c5.34-1.6,6.75-3.88,4.82-9.56C145.8,250.53,152.93,242,161.51,241.92Z" transform="translate(-98.9 -42.84)"/><path class="cls-1" d="M135.45,195.43c12-8.38,25.19-9.76,39.09-7,12.2,2.42,24.1,6.62,36.79,6.06-9.78,4.88-20.17,5.83-30.9,5.1-12.53-.85-25.13-2.25-37.2,3-2.44,1.07-4.5.65-5.54-2.26C137.09,198.66,136.21,197.07,135.45,195.43Z" transform="translate(-98.9 -42.84)"/><path class="cls-9" d="M256.36,241.86c0,2.35-.89,3.45-2.4,4.07-2.91,1.19-5.81,2.4-8.75,3.51a3.53,3.53,0,0,1-4.87-2.16c-1-2.24.24-3.92,2.24-4.83a81.37,81.37,0,0,1,8.76-3.47C254.31,238,256.14,239.27,256.36,241.86Z" transform="translate(-98.9 -42.84)"/><path class="cls-8" d="M223,258.63c-2.05-.15-3.54-.77-4-2.61s-.29-3.53,1.45-4.32c3.29-1.51,6.68-2.82,10.09-4a3.12,3.12,0,0,1,4.12,1.79c.88,1.94.38,3.81-1.41,4.71C229.83,255.9,226.26,257.23,223,258.63Z" transform="translate(-98.9 -42.84)"/><path class="cls-8" d="M311,214.8c0,6.42-5.88,12.27-12.45,12.37-5.32.08-8.56-3-8.52-8.1a12.86,12.86,0,0,1,12.42-12.37C307.74,206.66,311,209.74,311,214.8Z" transform="translate(-98.9 -42.84)"/><path class="cls-8" d="M304.1,221.81c-3.2,2.57-6.9,3.63-10.31,1-2.2-1.71-2.58-4.56-.28-7.09C295.37,222.36,296.44,223,304.1,221.81Z" transform="translate(-98.9 -42.84)"/><path class="cls-8" d="M266.91,200.14c1.17-2,3.25-2.87,5.26-3.52,3.91-1.27,7.78-1,10.3,2.67,2.81,4.09,1.91,8.15-1.16,11.83a9.6,9.6,0,0,1-3.16,1.15l-1,.11c-8.67.92-9.4.38-11-8.21A5.66,5.66,0,0,1,266.91,200.14Z" transform="translate(-98.9 -42.84)"/><path class="cls-8" d="M278.08,211.05l3.23.07a16.58,16.58,0,0,1-1.85,2.28c-4.65,4-11,4.37-14.43.83s-2.64-9.33,1.88-14.09c0,1.28,0,2.55.07,3.83.56,1.11,0,2.22,0,3.34.1,4.47,2.75,6.55,7,5.17A20.86,20.86,0,0,0,278.08,211.05Z" transform="translate(-98.9 -42.84)"/><path class="cls-8" d="M278.08,211.05a17.34,17.34,0,0,1-1.54,1.17c-3,1.84-6.2,2.9-9.08.34s-1.76-5.64-.48-8.59c.94.62,1,1.59,1,2.58.06,4.71,2.6,5.79,6.75,4.72A18,18,0,0,1,278.08,211.05Z" transform="translate(-98.9 -42.84)"/><path class="cls-8" d="M327.11,181.86c2.29,4.48.78,8.38-2.21,11.75a12.3,12.3,0,0,1-11.57,4.3,7.23,7.23,0,0,1-3.1-1.47c-3.3-2.54-3.9-5.92-2.77-9.77,1.45-4.95,6.05-9.09,11-9.48,3.8-.29,7.3.36,8.67,4.72-1.69,1-2.81-.44-4.05-1a9.32,9.32,0,0,0-12.68,7.85c1.83,5.42,3.33,6,10.28,4.1,2.89-1.24,3.72-3.94,4.62-6.57C325.82,184.77,325.63,183,327.11,181.86Z" transform="translate(-98.9 -42.84)"/><path class="cls-8" d="M309,189.17c-.79-5.1,3.1-7.71,6.4-9.5,3.85-2.09,8.22-.81,11.69,2.24v0c-.52,4.86-.6,9.94-6.28,12.14-1.29-.71-2.59,0-3.87,0-3.16.05-5.77-.5-6-4.3C310.8,187.5,309.52,189.82,309,189.17Z" transform="translate(-98.9 -42.84)"/><path class="cls-8" d="M299.18,169.81c3,4.54,2.46,9.18-1.56,13.39s-10.13,5.46-14,2.88a8.47,8.47,0,0,1-2.65-2.87c-2.39-4.37-.35-10.54,4.46-14s9.83-3.3,13.8.61c-1.08,1.37-2.35.61-3.59.33-5.54-1.26-8.24,0-11.28,5.06-.87,2.41-1.58,4.82.55,7,1.81,1.84,3.64,1,5.46,0,7.5-2.13,7.5-2.13,7.83-10.28A2.66,2.66,0,0,1,299.18,169.81Z" transform="translate(-98.9 -42.84)"/><path class="cls-8" d="M299.18,169.81a8.09,8.09,0,0,0-.06,2c1.54,7.92-.66,10.67-9,11.23-4,.74-6.54-.91-6.93-4.52-.13-1.11.74-2.25-.1-3.34,2.3-5.82,7.47-8.3,12.87-6.17,1.06.42,2,1.15,3.27.86L299,170Z" transform="translate(-98.9 -42.84)"/><path class="cls-8" d="M283.05,175.14c1.6,3.28,1.42,8.16,7,7.86-1,2-2.45,2.29-4.47,1.35a5.66,5.66,0,0,1-3.47-5.44A15.69,15.69,0,0,1,283.05,175.14Z" transform="translate(-98.9 -42.84)"/></svg>