<svg version="1.2" xmlns="http://www.w3.org/2000/svg" viewBox="0 0 341 357" width="341" height="357">
	<title>blanco-svg</title>
	<style>
		.s0 { fill: #fefefe } 
	</style>
	<path id="Layer" class="s0" d="m365.9 162.9v-90h90v-30h-60-30v-15q0-1.5 0.3-2.9 0.3-1.5 0.8-2.8 0.6-1.4 1.4-2.6 0.8-1.3 1.9-2.3 1-1 2.3-1.9 1.2-0.8 2.5-1.4 1.4-0.5 2.9-0.8 1.4-0.3 2.9-0.3h90q1.5 0 2.9 0.3 1.5 0.3 2.9 0.8 1.3 0.6 2.5 1.4 1.3 0.9 2.3 1.9 1.1 1.1 1.9 2.3 0.8 1.2 1.4 2.6 0.6 1.4 0.8 2.8 0.3 1.5 0.3 2.9v60l-30 15 30 15v45h-30v-30l-60-30v60z"/>
	<path id="Layer" class="s0" d="m509.3 162.9l75-150 75 150h-90l15-30h30l-30-60-45 90z"/>
	<path id="Layer" class="s0" d="m682.7 162.9v-150h45l60 120v-120h30v150h-45l-60-120v120z"/>
	<path id="Layer" class="s0" d="m856 162.9v-135q0-1.5 0.3-2.9 0.3-1.5 0.8-2.8 0.6-1.4 1.4-2.6 0.8-1.3 1.9-2.3 1-1.1 2.3-1.9 1.2-0.8 2.6-1.4 1.3-0.6 2.8-0.9 1.4-0.2 2.9-0.2h15v45l45-45h45l-90 90v60zm75 0q-1.5 0-2.9-0.3-1.5-0.2-2.8-0.8-1.4-0.6-2.6-1.4-1.3-0.8-2.3-1.9-1.1-1-1.9-2.2-0.8-1.3-1.4-2.6-0.6-1.4-0.8-2.9-0.3-1.4-0.3-2.9v-45l30-30v60h30v30z"/>
	<path id="Layer" class="s0" d="m365.9 342.9v-135q0-1.4 0.3-2.9 0.3-1.5 0.8-2.8 0.6-1.4 1.4-2.6 0.8-1.2 1.9-2.3 1-1 2.3-1.9 1.2-0.8 2.5-1.4 1.4-0.5 2.9-0.8 1.4-0.3 2.9-0.3h120q1.5 0 2.9 0.3 1.5 0.3 2.9 0.8 1.3 0.6 2.5 1.4 1.3 0.9 2.3 1.9 1.1 1.1 1.9 2.3 0.8 1.2 1.4 2.6 0.6 1.4 0.8 2.8 0.3 1.5 0.3 2.9v15h-120v90h90v-30h-30-30v-15q0-1.4 0.2-2.9 0.3-1.4 0.9-2.8 0.6-1.4 1.4-2.6 0.8-1.2 1.9-2.3 1-1 2.2-1.9 1.3-0.8 2.6-1.4 1.4-0.5 2.9-0.8 1.4-0.3 2.9-0.3h60q1.5 0 2.9 0.3 1.5 0.3 2.9 0.8 1.3 0.6 2.6 1.4 1.2 0.9 2.2 1.9 1.1 1.1 1.9 2.3 0.8 1.2 1.4 2.6 0.6 1.3 0.9 2.8 0.2 1.4 0.2 2.9v60q0 1.5-0.2 2.9-0.3 1.5-0.9 2.9-0.6 1.3-1.4 2.6-0.8 1.2-1.9 2.2-1 1.1-2.2 1.9-1.3 0.8-2.6 1.4-1.4 0.6-2.9 0.8-1.4 0.3-2.9 0.3z"/>
	<path id="Layer" class="s0" d="m539.3 342.9l75-150 75 150h-90l15-30h30l-30-60-45 90z"/>
	<path id="Layer" class="s0" d="m712.7 342.9v-135q-0.1-1.4 0.2-2.9 0.3-1.5 0.9-2.8 0.5-1.4 1.3-2.6 0.9-1.2 1.9-2.3 1.1-1.1 2.3-1.9 1.2-0.8 2.6-1.4 1.3-0.6 2.8-0.9 1.5-0.2 3-0.2h15l45 90 45-90h15q1.4 0 2.9 0.2 1.4 0.3 2.8 0.9 1.4 0.6 2.6 1.4 1.2 0.8 2.3 1.9 1 1 1.9 2.2 0.8 1.3 1.4 2.6 0.5 1.4 0.8 2.9 0.3 1.4 0.3 2.9v135h-30v-90l-45 90-45-90v90z"/>
	<path id="Layer" class="s0" d="m901 223q-1.5 0-2.9-0.3-1.5-0.3-2.9-0.8-1.3-0.6-2.5-1.4-1.3-0.9-2.3-1.9-1.1-1.1-1.9-2.3-0.8-1.2-1.4-2.6-0.5-1.4-0.8-2.8-0.3-1.5-0.3-2.9 0-1.5 0.3-3 0.3-1.4 0.8-2.8 0.6-1.4 1.4-2.6 0.8-1.3 1.9-2.3 1-1.1 2.3-1.9 1.2-0.8 2.5-1.4 1.4-0.6 2.9-0.8 1.4-0.3 2.9-0.3h90q1.5 0 2.9 0.3 1.5 0.2 2.9 0.8 1.3 0.6 2.6 1.4 1.2 0.8 2.2 1.9 1.1 1 1.9 2.3 0.8 1.2 1.4 2.6 0.6 1.3 0.8 2.8 0.3 1.4 0.3 2.9 0 1.5-0.3 3-0.2 1.4-0.8 2.8-0.6 1.3-1.4 2.6-0.8 1.2-1.9 2.2-1 1.1-2.2 1.9-1.3 0.9-2.6 1.4-1.4 0.6-2.9 0.9-1.4 0.2-2.9 0.2zm0 60q-1.5 0-2.9-0.2-1.5-0.3-2.9-0.9-1.3-0.5-2.5-1.4-1.3-0.8-2.3-1.9-1.1-1-1.9-2.2-0.8-1.3-1.4-2.6-0.5-1.4-0.8-2.9-0.3-1.4-0.3-2.9 0-1.5 0.3-2.9 0.3-1.5 0.8-2.8 0.6-1.4 1.4-2.6 0.8-1.2 1.9-2.3 1-1 2.3-1.9 1.2-0.8 2.5-1.4 1.4-0.5 2.9-0.8 1.4-0.3 2.9-0.3h90q1.5 0 2.9 0.3 1.5 0.3 2.9 0.8 1.3 0.6 2.6 1.4 1.2 0.9 2.2 1.9 1.1 1.1 1.9 2.3 0.8 1.2 1.4 2.6 0.6 1.3 0.8 2.8 0.3 1.4 0.3 2.9 0 1.5-0.3 2.9-0.2 1.5-0.8 2.9-0.6 1.3-1.4 2.6-0.8 1.2-1.9 2.2-1 1.1-2.2 1.9-1.3 0.9-2.6 1.4-1.4 0.6-2.9 0.9-1.4 0.2-2.9 0.2zm0 60q-1.5 0.1-2.9-0.2-1.5-0.3-2.8-0.9-1.4-0.5-2.6-1.3-1.3-0.9-2.3-1.9-1.1-1.1-1.9-2.3-0.8-1.2-1.4-2.6-0.5-1.4-0.8-2.8-0.3-1.5-0.3-3 0-1.4 0.3-2.9 0.2-1.5 0.8-2.8 0.6-1.4 1.4-2.7 0.8-1.2 1.9-2.2 1-1.1 2.3-1.9 1.2-0.9 2.5-1.4 1.4-0.6 2.9-0.9 1.4-0.2 2.9-0.2h90q1.5 0 2.9 0.2 1.5 0.3 2.9 0.9 1.3 0.5 2.6 1.4 1.2 0.8 2.2 1.9 1.1 1 1.9 2.2 0.8 1.3 1.4 2.6 0.6 1.4 0.8 2.8 0.3 1.5 0.3 3 0 1.5-0.3 2.9-0.2 1.5-0.8 2.8-0.6 1.4-1.4 2.6-0.8 1.3-1.9 2.3-1 1.1-2.2 1.9-1.3 0.8-2.6 1.4-1.4 0.5-2.9 0.8-1.4 0.3-2.9 0.3z"/>
	<path id="Layer" class="s0" d="m1029.4 342.9l30-30h60v-30h-75q-1.5 0-2.9-0.2-1.5-0.3-2.9-0.9-1.3-0.5-2.6-1.4-1.2-0.8-2.2-1.9-1.1-1-1.9-2.2-0.8-1.3-1.4-2.6-0.6-1.4-0.8-2.9-0.3-1.4-0.3-2.9v-60q0-1.5 0.3-2.9 0.2-1.5 0.8-2.8 0.6-1.4 1.4-2.6 0.8-1.3 1.9-2.3 1-1.1 2.2-1.9 1.3-0.8 2.6-1.4 1.4-0.6 2.9-0.9 1.4-0.3 2.9-0.2h90q1.5-0.1 2.9 0.2 1.5 0.3 2.9 0.9 1.3 0.6 2.6 1.4 1.2 0.8 2.2 1.9 1.1 1 1.9 2.3 0.8 1.2 1.4 2.6 0.5 1.3 0.8 2.8 0.3 1.4 0.3 2.9v15h-90v30h75q1.5 0 2.9 0.3 1.5 0.3 2.8 0.8 1.4 0.6 2.6 1.4 1.3 0.9 2.3 1.9 1 1.1 1.9 2.3 0.8 1.2 1.4 2.6 0.5 1.3 0.8 2.8 0.3 1.4 0.2 2.9v60q0.1 1.5-0.2 2.9-0.3 1.5-0.8 2.9-0.6 1.3-1.4 2.6-0.9 1.2-1.9 2.2-1 1.1-2.3 1.9-1.2 0.8-2.6 1.4-1.3 0.5-2.8 0.8-1.5 0.3-2.9 0.3z"/>
	<path id="Layer" class="s0" d="m886.1 205.2h27v125h-27z"/>
	<path id="Layer" class="s0" d="m255.4 135c-10.5-9.6-21.2-18.7-34.8-23.6-19.7-7.2-37.6-4-53.6 9.5-6.8 5.7-13 12.4-20.1 17.8-8.4 6.4-17.7 11.1-28.7 11.4-0.4-2.5 1.6-3.1 3.1-4 10.6-6.3 17.9-15.7 24.8-25.7 2.1-3 1.2-4.7-1.7-6.2-23.5-11.7-47.4-22.4-73.8-25.3-9.5-1.1-19.2-1.6-28.6 1.9-11.6 4.3-16.3 11.3-15.9 25.2 0.3 10.8 4.1 20.8 8.6 30.5 0.8 1.7 3 3.4 0.8 5.5l-13.2 12.7c-6.1-13.5-12.3-26.8-13.8-41.9-2.7-27.9 13.2-46.8 41.2-48.4 18.5-1 36 3.7 53.1 10.1q6.5 2.4 12.9 5.1 6.4 2.7 12.6 5.8 6.2 3 12.3 6.3 6.1 3.3 12.1 6.8c1.7 1 3.1 2.1 5.2 0.3 18.7-16.5 39.4-16.2 61.2-7.4q3.3 1.4 6.5 3 3.1 1.6 6.2 3.3 3.1 1.8 6.1 3.8 2.9 2 5.8 4.1c2.2 1.7 3.4 2 4.7-0.9 10.9-24.5 21.4-49.2 24.1-76.3q0.3-1.8 0.3-3.7 0.1-1.9 0-3.7-0.1-1.9-0.4-3.8-0.3-1.8-0.8-3.6c-2-7.5-5.8-10.6-13.5-10.7-6.9-0.2-13.1 2-19.2 4.9-23.2 10.9-42.2 27.7-60.5 45.2-7.2 6.9-14.1 14.2-21.1 21.2-1 0.9-1.7 2-2.7 2.9-1.5 1.2-3 3-5.1 1.7-2-1.2-1.2-3.2-0.6-4.9 20.2-23.1 41.1-45.4 65.8-63.9 10.4-7.8 21.3-14.9 34-18.5 19-5.3 32.2 3 35.6 22.6 2.5 14.9 0.1 29.5-3.2 44-5.3 23.6-14.4 45.7-25.7 66.9z"/>
	<path id="Layer" class="s0" d="m31.1 325.3c24 5.7 39-7.5 52.3-24.5 7.8-10 12.9-21.6 19.2-32.6 5.5-9.6 14-15.1 24.4-18.2 1.1-0.4 2.4-0.9 3 0.4 0.6 1-0.5 1.7-1.2 2.4-3.9 3.7-4.1 3.8-0.2 7.3 4 3.5 8 7.2 12.7 9.9 14.5 10.4 28.6 21.2 43.8 30.4 26.6 16.2 53.8 30.7 84.6 37.1 9.5 2 19.2 2.9 28.8 0.6 12.4-2.8 19.2-11.3 19.8-24.1 0.5-10.1-1.7-19.8-5.1-29.3q-0.3-0.6-0.6-1.2-0.2-0.7-0.5-1.3-0.2-0.7-0.4-1.3-0.2-0.7-0.4-1.3c-0.6-2.9-0.9-5.9 2.5-7.2 3.3-1.3 6 0 7.7 3q0.5 1.1 1.1 2.2 0.5 1.1 1 2.3 0.5 1.1 1 2.2 0.4 1.2 0.9 2.4 1.7 4.2 2.9 8.6 1.2 4.4 1.9 8.9 0.8 4.5 1 9 0.2 4.6 0 9.1c-1.2 17.3-14.1 31-33.4 34.8-17.4 3.4-34.5 0.9-51.3-3.8-48.3-13.4-89.5-39.6-128.2-70.5-1-0.8-2-1.6-3.1-2.5-1.7-1.5-2.8-1.3-3.4 1.1-1.3 4.4-2.5 9-4.2 13.3-5.4 14-11.8 27.5-23.1 37.9-15.3 14.2-37.6 13.3-51.7-2.2-0.7-0.8-1.7-1.6-1.8-2.9z"/>
	<path id="Layer" class="s0" d="m302.4 219.7q-0.2 1.6-0.4 3.2c-1.4 7-6.6 11-12.1 14.5-10 6.4-21.5 7-32.8 5.8q-4.6-0.5-9.1-1.4-4.6-0.9-9-2.1-4.5-1.2-8.8-2.8-4.4-1.6-8.6-3.5c-1.6-0.7-3.6-1.1-4.2-3.1 9.9-18.4 19.9-36.8 29.7-55.2 5.5-10.2 10.7-20.6 16.1-30.8 1.9-0.3 2.6 1.2 3.5 2.3 14.3 18.8 26.7 38.7 33.8 61.5 1.2 3.7 2.5 7.5 1.9 11.6z"/>
	<path id="Layer" class="s0" d="m217.4 230.3c11.1 4.7 22.4 8.8 34.5 10.8q3.1 0.6 6.4 0.8 3.2 0.3 6.4 0.3 3.2 0 6.5-0.3 3.2-0.3 6.4-0.9c11-2.1 18.6-8.8 24.4-18 6.2 22.5-13.5 45.5-37.2 43.9-16.2-1.1-30.6-7.2-44.3-15.4-3.2-2-4.8-1.5-7.3 1.1-4.2 4.6-8.3 9.6-15.9 12.6z"/>
	<path id="Layer" class="s0" d="m302.4 219.7c-6.6-28.5-21.3-52.8-39.2-75.5q3.5-7.3 6.7-14.8 3.2-7.4 6-15.1 2.8-7.6 5.2-15.4 2.4-7.8 4.4-15.6c2.3 1.5 2.5 3.7 2.8 5.7 1.3 8-0.4 15.9-1.7 23.8q-0.6 4-1.4 7.9-0.8 4-1.7 8-0.9 3.9-1.9 7.8-1 4-2.2 7.8c-1 3.5-0.7 6.1 1.8 9 10.6 12.8 19.3 26.7 23 43.1 1.8 7.9 2.1 15.8-1.8 23.3z"/>
	<path id="Layer" class="s0" d="m11 186.1c3.1 4.8 1.7 9.5 0.2 14.6-5.4 19.1-5.4 38.6-2.6 58.2 1.1 8 2.4 16 3.7 24q0.6 4 1.5 8 1 3.9 2.3 7.7 1.2 3.9 2.9 7.6 1.6 3.7 3.5 7.3c0.7 1.3 2 2.8 0.7 4.5-0.8 1.1-2 0.7-3.1 0.1-11.4-10.2-15.8-23.9-17.8-38.3-4.4-31.7-2.9-63 8.1-93.4 0-0.6 0.2-0.6 0.6-0.3z"/>
	<path id="Layer" class="s0" d="m177.3 236.7c7.2-1.1 14.3-0.9 21.3 1.6-5.9 9.4-12.2 18.6-18.9 27.4-1.6 2.1-3.3 4.2-5.8 5.3q-1.4 0.7-2.9 1-1.5 0.2-3-0.1-1.4-0.2-2.8-1-1.3-0.7-2.3-1.8c-3.3-3.3-3.1-7.4-0.9-11 3.6-5.8 7.8-11.2 11.6-16.7 1-1.4 1.8-2.8 2.7-4.2q0-0.1 0.1-0.3 0.1-0.1 0.3-0.1 0.1-0.1 0.3-0.1 0.2-0.1 0.3 0z"/>
	<path id="Layer" class="s0" d="m11 186.1q-0.1 0-0.1 0.1-0.1 0-0.2 0.1-0.1 0-0.2 0-0.1 0.1-0.1 0.1c-4-9.5-8.1-18.9-9.6-29.2q-0.4-2.6-0.6-5.3-0.1-2.7 0-5.3 0.2-2.7 0.6-5.3 0.4-2.7 1.1-5.3c5.9 13.2 8.8 26.4 14.9 38.1q-1 1.4-1.8 2.8-0.9 1.5-1.6 3-0.7 1.5-1.3 3-0.6 1.6-1.1 3.2z"/>
	<path id="Layer" class="s0" d="m20.1 318.1c3 0.1 3.8-1.4 2.1-3.6-4.8-6.7-6-14.8-8.9-22.3q-0.4-1.1-0.7-2.2-0.3-1.2-0.4-2.3-0.1-1.2-0.1-2.4 0-1.2 0.2-2.4c3.7 14 8.6 27.6 15.9 40.2-3.2-0.8-5.7-2.8-8.1-5z"/>
	<path id="Layer" class="s0" d="m141.4 270c-6.5-2.2-11-7.2-15.5-12-2.2-2.2-0.1-4.1 2.1-5.5 2.5-1.7 1.3-2.4-1-2.5 3.7-1.4 7.3-3.2 11.5-2.9-3.2 2.1-6.3 4.3-9.5 6.2-3.3 1.9-3.3 3.4-0.5 5.8 4.3 3.7 9.1 6.7 12.9 10.9z"/>
	<path id="Layer" class="s0" d="m36.6 152.6c11.9-8.4 25.1-9.8 39-7 12.2 2.4 24.1 6.6 36.8 6-9.7 4.9-20.1 5.9-30.9 5.1-12.5-0.8-25.1-2.2-37.2 3-2.4 1.1-4.5 0.7-5.5-2.2-0.6-1.7-1.5-3.3-2.2-4.9z"/>
	<path id="Layer" class="s0" d="m157.5 199c0 2.4-0.9 3.5-2.4 4.1-3 1.2-5.8 2.4-8.8 3.5q-0.7 0.3-1.4 0.3-0.8 0-1.5-0.3-0.7-0.3-1.2-0.9-0.5-0.5-0.8-1.3c-1-2.2 0.3-3.9 2.3-4.8q1-0.5 2.1-1 1.1-0.4 2.2-0.9 1.1-0.4 2.2-0.8 1.1-0.4 2.2-0.8c3-0.9 4.8 0.3 5.1 2.9z"/>
	<path id="Layer" class="s0" d="m124.1 215.8c-2-0.2-3.5-0.8-4-2.6-0.5-1.9-0.3-3.6 1.4-4.4 3.3-1.5 6.7-2.8 10.1-4q0.6-0.2 1.3-0.2 0.6 0 1.2 0.3 0.6 0.2 1 0.7 0.4 0.4 0.7 1c0.8 2 0.3 3.8-1.5 4.8-3.4 1.7-6.9 3-10.2 4.4z"/>
	<path id="Layer" fill-rule="evenodd" class="s0" d="m253.8 131.7q0.5 0.4 0.8 0.9 0.3 0.6 0.5 1.2 0.2 0.6 0.3 1.2c-6.9 16.4-15.5 32-23.8 47.6q-3.8 7.2-7.7 14.3-4 7-8.1 14-4.1 7-8.4 13.8-4.3 6.9-8.8 13.6-0.5 0.3-1.1 0.4-0.5 0.2-1.1 0.2-0.5 0-1.1-0.1-0.5-0.1-1.1-0.3c-5.3-1.6-10.8-0.8-16.3-0.8-2.8-3.4 1.9-4.8 2-7.9-10 3.5-19.3 8.6-29.1 12.4l-12.4 4.9c-3.7 1.1-7.1 3.1-11 3.8-13.1 3.9-22.1 12.5-27.8 24.8q-1.9 4.2-4.1 8.4-2.3 4.1-4.8 8-2.5 4-5.2 7.8-2.8 3.8-5.8 7.4c-6.3 7.5-13.5 13.9-22.7 17.5-8.4 3.4-17.2 5.2-26 0.5l-2.9-2.2c-4.3-3.7-6.2-9-8.4-13.9-3.9-8.6-6.4-17.7-8.8-26.9q-1.6-7.2-2.8-14.6-1.2-7.3-1.8-14.7-0.7-7.4-0.9-14.8-0.1-7.4 0.2-14.8 0.1-2.8 0.4-5.5 0.3-2.7 0.8-5.4 0.4-2.7 1.1-5.4 0.6-2.7 1.4-5.3c1.5-4.9 2.4-9.7 1.3-14.7 0.4-5 0.7-10.2 6.1-13 3.6 6.1 7.2 12.4 12.7 17.1 1.9 1.6 3.7 3.3 6.9 3.9-4.9-10.3-10.5-19.9-14-30.3 2.8-6.4 8.2-9.8 14-12.9q0.1 0.1 0.3 0.2 0.2 0.1 0.3 0.2 0.2 0.1 0.3 0.2 0.2 0.2 0.3 0.3c4.2 6.1 4.2 6.1 11.2 3.9 9.7-3 19.8-2.6 29.7-1.6q4.3 0.5 8.6 0.4 4.4 0 8.7-0.6 4.3-0.6 8.5-1.7 4.2-1.2 8.3-2.8 0.6-0.2 1.3-0.4 0.7-0.2 1.3-0.4 0.7-0.2 1.4-0.3 0.7-0.2 1.4-0.3c13.5-1.2 24.7-7.3 34.3-16.4 5-4.7 10-9.4 15.3-13.7 18.5-15.2 41.3-16.5 63.7-4 7.9 4.4 14.8 10.2 21.7 15.9q0.5 0.4 0.9 0.9zm-164.2 97.2c6.1-2.7 8.4-10.8 5.8-15.8-2.7-4.9-7.9-6-14.9-3.2-6.3 2.6-6.3 2.6-8.3-3.8-1.5-4.7-4.6-7-9.5-7-8.7 0-15.8 8.6-13 16.7 1.9 5.7 0.5 7.9-4.9 9.5q-1.5 0.5-3 1.3-1.4 0.8-2.6 2-1.2 1.1-2.1 2.4-0.8 1.4-1.4 2.9c-2.7 7.1 1.5 13.9 8.7 13.9q1.1 0 2.1-0.2 1.1-0.2 2.1-0.5 1-0.3 2-0.8 0.9-0.4 1.8-1c3.6-2.2 5.5-1.7 6.2 2.8 0.8 5.2 3.8 8.5 9.2 8.9 7.5 0.6 16-6.9 14-14-2.4-8.5 1-11.1 7.8-14.1zm92.8-60.6c3.1-3.7 4-7.8 1.1-11.9-2.5-3.6-6.4-3.9-10.3-2.6-2 0.6-4.1 1.5-5.2 3.5-4.6 4.8-5.4 10.5-1.9 14.1 3.4 3.5 9.8 3.2 14.4-0.8q0.3-0.3 0.5-0.6 0.2-0.3 0.5-0.5 0.2-0.3 0.4-0.6 0.2-0.3 0.5-0.6zm2.2-25.1c3.9 2.6 10 1.3 14-2.9 4-4.2 4.6-8.8 1.6-13.4-4-3.8-9-4-13.8-0.5-4.8 3.4-6.9 9.6-4.5 14q0.3 0.4 0.6 0.8 0.3 0.4 0.6 0.8 0.3 0.3 0.7 0.6 0.4 0.4 0.8 0.6zm14.9 41.1c6.6-0.1 12.5-5.9 12.5-12.3 0-5.1-3.3-8.1-8.6-8.1-1.6 0-3.2 0.4-4.7 1-1.4 0.7-2.8 1.6-3.9 2.7-1.2 1.2-2.1 2.5-2.7 4-0.7 1.5-1 3-1.1 4.6 0 5.1 3.2 8.2 8.5 8.1zm26.4-33.5c3-3.4 4.5-7.3 2.2-11.7-1.4-4.3-4.9-5-8.7-4.7-4.9 0.4-9.5 4.5-11 9.5-1.1 3.9-0.5 7.2 2.8 9.8q0.3 0.3 0.7 0.5 0.3 0.2 0.7 0.4 0.4 0.2 0.8 0.3 0.5 0.2 0.9 0.2 1.6 0.3 3.2 0.2 1.6-0.2 3.1-0.8 1.6-0.5 2.9-1.5 1.3-0.9 2.4-2.2z"/>
	<path id="Layer" class="s0" d=""/>
</svg>