<svg id="Capa_1" data-name="Capa 1" xmlns="http://www.w3.org/2000/svg" viewBox="0 0 1149.38 356.46"><defs><style>.cls-1{fill:#fff;}</style></defs><path d="M493.05,685.63v-90h90v-30H523v0h-30v-15a15,15,0,0,1,15-15h90a15,15,0,0,1,15,15v60l-30,15,30,15v45H583v-30l-60-30v60Z" transform="translate(-127.11 -522.7)"/><path d="M636.42,685.63l75-150,75,150h-90l15-30h30l-30-60-45,90Z" transform="translate(-127.11 -522.7)"/><path d="M809.79,685.63v-150h45l60,120v-120h30v150h-45l-60-120v120Z" transform="translate(-127.11 -522.7)"/><path d="M983.15,685.63v-135a15,15,0,0,1,15-15h15v45l45-45h45l-90,90v60Zm75,0a14.92,14.92,0,0,1-15-15v-45l30-30v60h30v30Z" transform="translate(-127.11 -522.7)"/><path d="M493.05,865.63v-135a15,15,0,0,1,15-15H628a15,15,0,0,1,15,15v15H523v90h90v-30H583v0H553v-15a15,15,0,0,1,15-15h60a14.57,14.57,0,0,1,10.62,4.4,14.42,14.42,0,0,1,4.39,10.58v60a14.92,14.92,0,0,1-15,15Z" transform="translate(-127.11 -522.7)"/><path d="M666.41,865.63l75-150,75,150h-90l15-30h30l-30-60-45,90Z" transform="translate(-127.11 -522.7)"/><path d="M839.78,865.63v-135a15,15,0,0,1,15-15h15l45,90,45-90h15a15,15,0,0,1,15,15v135h-30v-90l-45,90-45-90v90Z" transform="translate(-127.11 -522.7)"/><path d="M1028.12,745.66a15,15,0,1,1,0-30h90a15,15,0,1,1,0,30Zm0,60a15,15,0,1,1,0-30h90a15,15,0,1,1,0,30Zm0,60a15,15,0,1,1,0-30h90a15,15,0,1,1,0,30Z" transform="translate(-127.11 -522.7)"/><path d="M1156.51,865.63l30-30h60v-30h-75a15,15,0,0,1-15-15v-60a15,15,0,0,1,15-15h90a14.94,14.94,0,0,1,15,15v15h-90v30h75a14.94,14.94,0,0,1,15,15v60a14.85,14.85,0,0,1-15,15Z" transform="translate(-127.11 -522.7)"/><rect x="886.1" y="205.16" width="27" height="125"/><path d="M382.51,657.7c-6.89,16.39-15.43,32-23.79,47.64a621.74,621.74,0,0,1-33,55.7,5.22,5.22,0,0,1-4.35.21c-5.37-1.61-10.85-.8-16.29-.78-2.84-3.48,1.88-4.88,2-7.93-10.05,3.51-19.31,8.62-29.12,12.4l-12.4,4.9c-3.7,1.12-7.11,3.1-10.95,3.82-13.16,3.87-22.08,12.5-27.78,24.75A141.26,141.26,0,0,1,206.91,830c-6.28,7.49-13.55,13.91-22.67,17.57-8.46,3.39-17.25,5.19-26,.45l-2.91-2.21c-4.34-3.69-6.25-8.93-8.48-13.86-3.89-8.63-6.4-17.76-8.75-26.92a218.72,218.72,0,0,1-5.29-58.93,89.68,89.68,0,0,1,3.65-21.6c1.49-4.87,2.46-9.61,1.3-14.64.42-5.1.71-10.27,6.11-13,3.63,6.15,7.21,12.36,12.71,17.11,1.84,1.59,3.71,3.21,6.87,3.85-4.92-10.34-10.5-19.87-14-30.33,2.77-6.32,8.2-9.76,14-12.85a4.17,4.17,0,0,1,1.27.89c4.16,6.11,4.17,6.12,11.15,3.93,9.75-3.06,19.87-2.63,29.68-1.61a70.68,70.68,0,0,0,34.12-4.7,38.31,38.31,0,0,1,5.38-1.4c13.5-1.23,24.74-7.35,34.39-16.46,5-4.69,9.95-9.35,15.2-13.66,18.53-15.22,41.31-16.5,63.79-4,7.9,4.39,14.77,10.17,21.65,15.94A5.84,5.84,0,0,1,382.51,657.7Z" transform="translate(-127.11 -522.7)"/><path d="M382.51,657.7c-10.46-9.58-21.21-18.7-34.82-23.65-19.69-7.14-37.59-4-53.54,9.5-6.84,5.8-13,12.45-20.11,17.86-8.38,6.38-17.76,11.08-28.72,11.35-.41-2.44,1.63-3.09,3.1-4,10.6-6.29,17.92-15.7,24.77-25.63,2.13-3.08,1.26-4.72-1.72-6.21-23.47-11.68-47.32-22.39-73.72-25.34-9.51-1.06-19.28-1.62-28.64,1.88-11.64,4.35-16.34,11.35-15.91,25.21.33,10.81,4.09,20.82,8.62,30.55.77,1.64,3,3.34.84,5.53l-13.23,12.66c-6.11-13.48-12.35-26.85-13.8-41.91-2.69-27.92,13.15-46.84,41.22-48.43,18.48-1,36,3.78,53.09,10.08a305.39,305.39,0,0,1,49.83,24.08c1.76,1,3.15,2.09,5.27.22,18.67-16.45,39.41-16.18,61.15-7.33a111.49,111.49,0,0,1,24.58,14.21c2.26,1.68,3.47,2,4.78-.91,10.91-24.52,21.37-49.18,24.09-76.28a41.14,41.14,0,0,0-.88-14.87c-2-7.51-5.88-10.58-13.56-10.72-6.84-.12-13.1,2.07-19.17,4.92-23.26,10.93-42.17,27.71-60.5,45.22-7.22,6.9-14.09,14.16-21.11,21.25-1,.82-1.68,2-2.7,2.85-1.48,1.21-3,3-5.08,1.66-1.95-1.2-1.22-3.13-.65-4.87,20.23-23.06,41.15-45.41,65.83-63.88,10.44-7.81,21.32-14.93,34.05-18.47,19-5.3,32.2,3,35.56,22.54,2.55,14.89.11,29.52-3.18,44.06C402.93,614.41,393.79,636.46,382.51,657.7Z" transform="translate(-127.11 -522.7)"/><path d="M158.25,848c23.92,5.68,39-7.46,52.28-24.49,7.82-10,12.89-21.65,19.13-32.59,5.51-9.66,14.09-15.14,24.49-18.21,1.09-.4,2.37-.91,3,.37.52,1-.58,1.75-1.27,2.41-3.9,3.69-4,3.84-.21,7.27,4,3.58,8,7.23,12.77,9.94,14.42,10.41,28.59,21.18,43.8,30.44,26.54,16.17,53.81,30.7,84.61,37.11,9.5,2,19.13,2.81,28.73.6,12.4-2.85,19.27-11.35,19.84-24.12.45-10.16-1.67-19.85-5.15-29.3a41.36,41.36,0,0,1-1.86-5.16c-.65-2.85-.93-5.9,2.51-7.21,3.25-1.24,6,0,7.64,3a77.17,77.17,0,0,1,4,9.11,82,82,0,0,1,5.81,35.68c-1.19,17.22-14.07,31-33.37,34.77-17.37,3.36-34.47.87-51.31-3.81-48.25-13.43-89.52-39.56-128.17-70.47-1-.83-2.06-1.68-3.07-2.55-1.74-1.48-2.82-1.28-3.49,1.07-1.28,4.48-2.44,9-4.12,13.35-5.44,14-11.87,27.44-23.13,37.89-15.33,14.23-37.59,13.27-51.72-2.17C159.26,850.07,158.34,849.29,158.25,848Z" transform="translate(-127.11 -522.7)"/><path d="M429.51,742.42c-.15,1.06-.29,2.12-.44,3.18-1.34,7-6.61,11-12.05,14.49-10,6.43-21.48,7-32.83,5.82a117.74,117.74,0,0,1-35.47-9.81c-1.62-.72-3.58-1.1-4.24-3.15,9.92-18.38,19.9-36.72,29.74-55.14,5.47-10.23,10.73-20.57,16.07-30.86,1.88-.3,2.63,1.22,3.48,2.33,14.35,18.8,26.78,38.67,33.82,61.48C428.76,734.54,430.14,738.33,429.51,742.42Z" transform="translate(-127.11 -522.7)"/><path d="M344.48,753c11.14,4.71,22.46,8.82,34.49,10.8a72.75,72.75,0,0,0,25.7-.12c11-2.11,18.64-8.8,24.4-18,6.2,22.5-13.48,45.53-37.13,43.94-16.27-1.1-30.63-7.25-44.3-15.4-3.28-2-4.85-1.56-7.35,1.13-4.23,4.56-8.24,9.58-15.93,12.56Z" transform="translate(-127.11 -522.7)"/><path d="M429.51,742.42c-6.6-28.52-21.26-52.85-39.22-75.47a324.31,324.31,0,0,0,22.37-61c2.29,1.58,2.42,3.73,2.74,5.76,1.28,8-.44,15.91-1.68,23.76a254.78,254.78,0,0,1-7.2,31.57c-1,3.46-.72,6.05,1.75,9,10.63,12.74,19.36,26.64,23.07,43.07C433.12,727,433.38,734.91,429.51,742.42Z" transform="translate(-127.11 -522.7)"/><path d="M138.13,708.8c3.06,4.83,1.69,9.49.22,14.6-5.49,19.13-5.4,38.63-2.65,58.18,1.13,8,2.45,16,3.69,24.06a93.83,93.83,0,0,0,10.2,30.52c.76,1.37,2,2.87.73,4.53-.85,1.08-2,.74-3.11.13-11.4-10.23-15.79-23.9-17.8-38.33-4.41-31.68-2.87-63,8.06-93.4C137.5,708.55,137.72,708.48,138.13,708.8Z" transform="translate(-127.11 -522.7)"/><path d="M304.42,759.38c7.22-1.09,14.33-.87,21.26,1.66-5.92,9.38-12.14,18.55-18.9,27.35-1.61,2.11-3.28,4.17-5.79,5.32a9.1,9.1,0,0,1-11-1.93c-3.24-3.26-3.11-7.41-.86-11,3.6-5.74,7.74-11.14,11.62-16.71.94-1.34,1.75-2.77,2.62-4.16A.93.93,0,0,1,304.42,759.38Z" transform="translate(-127.11 -522.7)"/><path d="M138.13,708.8a2.41,2.41,0,0,1-.66.29c-4-9.46-8.06-18.91-9.6-29.2A52.35,52.35,0,0,1,129,658.75c5.91,13.2,8.77,26.31,14.89,38.06A40.45,40.45,0,0,0,138.13,708.8Z" transform="translate(-127.11 -522.7)"/><path d="M147.21,840.82c3,.07,3.75-1.39,2.11-3.67-4.81-6.69-6-14.77-8.92-22.21a18.33,18.33,0,0,1-1-9.3c3.7,14,8.59,27.58,16,40.16C152.08,845,149.63,843,147.21,840.82Z" transform="translate(-127.11 -522.7)"/><path d="M268.48,792.71c-6.52-2.22-11-7.23-15.5-12-2.14-2.22-.12-4.08,2.08-5.52,2.6-1.69,1.37-2.39-.92-2.52,3.71-1.36,7.3-3.14,11.42-2.88-3.15,2.1-6.2,4.34-9.46,6.24s-3.29,3.4-.47,5.8C259.9,785.5,264.74,788.46,268.48,792.71Z" transform="translate(-127.11 -522.7)"/><path class="cls-1" d="M189.72,721.77c4.93,0,8.1,2.32,9.56,7.09,1.94,6.33,2,6.31,8.26,3.77,7-2.84,12.26-1.7,14.89,3.22s.43,13.09-5.69,15.75c-6.8,3-10.19,5.63-7.78,14.13,2,7.07-6.53,14.58-14,14-5.45-.42-8.44-3.75-9.21-8.89-.68-4.51-2.59-5-6.2-2.84a15.74,15.74,0,0,1-8,2.5c-7.23,0-11.41-6.8-8.71-13.85a13.8,13.8,0,0,1,9.13-8.6c5.34-1.6,6.75-3.88,4.82-9.57C174,730.38,181.15,721.8,189.72,721.77Z" transform="translate(-127.11 -522.7)"/><path d="M163.66,675.28c12-8.37,25.19-9.75,39.09-7,12.2,2.43,24.11,6.62,36.79,6.06-9.78,4.89-20.17,5.84-30.9,5.11-12.53-.86-25.13-2.26-37.2,3-2.44,1.07-4.5.64-5.54-2.26C165.3,678.51,164.42,676.92,163.66,675.28Z" transform="translate(-127.11 -522.7)"/><path d="M284.57,721.72c0,2.35-.89,3.44-2.4,4.06-2.91,1.2-5.81,2.41-8.75,3.52a3.54,3.54,0,0,1-4.87-2.16c-1-2.24.24-3.92,2.24-4.83a77.42,77.42,0,0,1,8.76-3.47C282.52,717.9,284.35,719.13,284.57,721.72Z" transform="translate(-127.11 -522.7)"/><path d="M251.2,738.48c-2-.14-3.54-.76-4-2.61s-.28-3.52,1.45-4.32c3.29-1.51,6.68-2.81,10.09-4a3.13,3.13,0,0,1,4.12,1.79c.88,1.94.38,3.81-1.41,4.72C258,735.76,254.48,737.09,251.2,738.48Z" transform="translate(-127.11 -522.7)"/><path class="cls-1" d="M339.19,694.65c0,6.43-5.88,12.27-12.45,12.37-5.32.09-8.56-3-8.52-8.1a12.85,12.85,0,0,1,12.42-12.36C336,686.52,339.2,689.6,339.19,694.65Z" transform="translate(-127.11 -522.7)"/><path class="cls-1" d="M332.31,701.67c-3.2,2.57-6.9,3.63-10.3,1-2.21-1.71-2.59-4.56-.29-7.08C323.58,702.22,324.66,702.8,332.31,701.67Z" transform="translate(-127.11 -522.7)"/><path class="cls-1" d="M295.12,680c1.17-2,3.25-2.87,5.26-3.53,3.91-1.26,7.78-1,10.3,2.67,2.81,4.1,1.91,8.15-1.16,11.83a9.38,9.38,0,0,1-3.16,1.15c-.32,0-.65.08-1,.11-8.67.93-9.4.38-11-8.21A5.62,5.62,0,0,1,295.12,680Z" transform="translate(-127.11 -522.7)"/><path class="cls-1" d="M306.29,690.9l3.23.07a17.3,17.3,0,0,1-1.85,2.29c-4.64,4-11,4.36-14.43.82s-2.64-9.32,1.88-14.08c0,1.27.05,2.55.07,3.82.56,1.11,0,2.22,0,3.34.1,4.48,2.75,6.56,7,5.17A20,20,0,0,0,306.29,690.9Z" transform="translate(-127.11 -522.7)"/><path class="cls-1" d="M306.29,690.9a17.45,17.45,0,0,1-1.54,1.18c-3,1.84-6.2,2.89-9.08.33s-1.76-5.63-.48-8.59a2.75,2.75,0,0,1,1,2.59c.06,4.71,2.6,5.79,6.75,4.72A18,18,0,0,1,306.29,690.9Z" transform="translate(-127.11 -522.7)"/><path class="cls-1" d="M355.32,661.71c2.29,4.49.78,8.39-2.21,11.75a12.3,12.3,0,0,1-11.57,4.3,7.09,7.09,0,0,1-3.1-1.46c-3.3-2.55-3.9-5.92-2.77-9.78,1.45-4.95,6.05-9.09,11-9.47,3.8-.3,7.3.35,8.67,4.72-1.69,1-2.81-.45-4.05-1a9.31,9.31,0,0,0-12.68,7.85c1.83,5.42,3.33,6,10.28,4.09,2.89-1.24,3.72-3.94,4.62-6.56C354,664.62,353.84,662.83,355.32,661.71Z" transform="translate(-127.11 -522.7)"/><path class="cls-1" d="M337.24,669c-.78-5.1,3.11-7.71,6.4-9.5,3.85-2.09,8.22-.82,11.69,2.24v-.06c-.52,4.86-.6,9.95-6.27,12.14-1.3-.71-2.6,0-3.88,0-3.16.06-5.77-.5-6-4.3C339,667.35,337.73,669.68,337.24,669Z" transform="translate(-127.11 -522.7)"/><path class="cls-1" d="M327.39,649.66c3,4.55,2.46,9.18-1.56,13.39s-10.12,5.47-14,2.89a8.43,8.43,0,0,1-2.66-2.88c-2.39-4.36-.35-10.53,4.46-14s9.83-3.31,13.8.6c-1.08,1.37-2.35.62-3.59.34-5.54-1.26-8.24,0-11.27,5.05-.87,2.42-1.59,4.83.55,7,1.8,1.83,3.63.95,5.45,0,7.5-2.13,7.5-2.13,7.84-10.27A2.64,2.64,0,0,1,327.39,649.66Z" transform="translate(-127.11 -522.7)"/><path class="cls-1" d="M327.39,649.66a8.17,8.17,0,0,0-.06,2c1.54,7.92-.66,10.66-9,11.22-4,.75-6.54-.91-6.93-4.52-.13-1.11.75-2.25-.1-3.34,2.3-5.81,7.47-8.3,12.87-6.16,1.06.41,2,1.14,3.27.85l-.21.15Z" transform="translate(-127.11 -522.7)"/><path class="cls-1" d="M311.26,655c1.61,3.28,1.42,8.16,7,7.86-1,2-2.45,2.29-4.47,1.35a5.66,5.66,0,0,1-3.47-5.43A15.76,15.76,0,0,1,311.26,655Z" transform="translate(-127.11 -522.7)"/></svg>